<mxfile host="Electron" agent="Mozilla/5.0 (Windows NT 10.0; Win64; x64) AppleWebKit/537.36 (KHTML, like Gecko) draw.io/27.0.9 Chrome/134.0.6998.205 Electron/35.4.0 Safari/537.36" version="27.0.9">
  <diagram name="PÃ¡gina-1" id="olqg8K2a2hIvEkD6cwa-">
    <mxGraphModel dx="1426" dy="841" grid="1" gridSize="10" guides="1" tooltips="1" connect="1" arrows="1" fold="1" page="1" pageScale="1" pageWidth="827" pageHeight="1169" math="0" shadow="0">
      <root>
        <mxCell id="0" />
        <mxCell id="1" parent="0" />
        <mxCell id="TffWgvNhqmHeZFF0g053-29" style="edgeStyle=orthogonalEdgeStyle;rounded=0;orthogonalLoop=1;jettySize=auto;html=1;dashed=1;" parent="1" source="TffWgvNhqmHeZFF0g053-1" target="TffWgvNhqmHeZFF0g053-6" edge="1">
          <mxGeometry relative="1" as="geometry" />
        </mxCell>
        <mxCell id="TffWgvNhqmHeZFF0g053-30" value="use" style="edgeLabel;html=1;align=center;verticalAlign=middle;resizable=0;points=[];" parent="TffWgvNhqmHeZFF0g053-29" vertex="1" connectable="0">
          <mxGeometry x="-0.0113" y="1" relative="1" as="geometry">
            <mxPoint x="13" y="73" as="offset" />
          </mxGeometry>
        </mxCell>
        <mxCell id="TffWgvNhqmHeZFF0g053-1" value="Program" style="swimlane;fontStyle=1;align=center;verticalAlign=top;childLayout=stackLayout;horizontal=1;startSize=26;horizontalStack=0;resizeParent=1;resizeParentMax=0;resizeLast=0;collapsible=1;marginBottom=0;whiteSpace=wrap;html=1;" parent="1" vertex="1">
          <mxGeometry x="70" y="480" width="160" height="86" as="geometry" />
        </mxCell>
        <mxCell id="TffWgvNhqmHeZFF0g053-2" value="&lt;div&gt;&lt;br&gt;&lt;/div&gt;" style="text;strokeColor=none;fillColor=none;align=left;verticalAlign=top;spacingLeft=4;spacingRight=4;overflow=hidden;rotatable=0;points=[[0,0.5],[1,0.5]];portConstraint=eastwest;whiteSpace=wrap;html=1;" parent="TffWgvNhqmHeZFF0g053-1" vertex="1">
          <mxGeometry y="26" width="160" height="26" as="geometry" />
        </mxCell>
        <mxCell id="TffWgvNhqmHeZFF0g053-3" value="" style="line;strokeWidth=1;fillColor=none;align=left;verticalAlign=middle;spacingTop=-1;spacingLeft=3;spacingRight=3;rotatable=0;labelPosition=right;points=[];portConstraint=eastwest;strokeColor=inherit;" parent="TffWgvNhqmHeZFF0g053-1" vertex="1">
          <mxGeometry y="52" width="160" height="8" as="geometry" />
        </mxCell>
        <mxCell id="TffWgvNhqmHeZFF0g053-4" value="+ static Main(string[] args)" style="text;strokeColor=none;fillColor=none;align=left;verticalAlign=top;spacingLeft=4;spacingRight=4;overflow=hidden;rotatable=0;points=[[0,0.5],[1,0.5]];portConstraint=eastwest;whiteSpace=wrap;html=1;" parent="TffWgvNhqmHeZFF0g053-1" vertex="1">
          <mxGeometry y="60" width="160" height="26" as="geometry" />
        </mxCell>
        <mxCell id="TffWgvNhqmHeZFF0g053-13" style="edgeStyle=orthogonalEdgeStyle;rounded=0;orthogonalLoop=1;jettySize=auto;html=1;entryX=0.5;entryY=1;entryDx=0;entryDy=0;flowAnimation=0;shadow=0;" parent="1" source="TffWgvNhqmHeZFF0g053-5" target="TffWgvNhqmHeZFF0g053-9" edge="1">
          <mxGeometry relative="1" as="geometry" />
        </mxCell>
        <mxCell id="TffWgvNhqmHeZFF0g053-26" style="edgeStyle=orthogonalEdgeStyle;rounded=0;orthogonalLoop=1;jettySize=auto;html=1;" parent="1" source="TffWgvNhqmHeZFF0g053-5" target="TffWgvNhqmHeZFF0g053-21" edge="1">
          <mxGeometry relative="1" as="geometry" />
        </mxCell>
        <mxCell id="TffWgvNhqmHeZFF0g053-5" value="Config" style="swimlane;fontStyle=1;align=center;verticalAlign=top;childLayout=stackLayout;horizontal=1;startSize=26;horizontalStack=0;resizeParent=1;resizeParentMax=0;resizeLast=0;collapsible=1;marginBottom=0;whiteSpace=wrap;html=1;" parent="1" vertex="1">
          <mxGeometry x="320" y="260" width="170" height="118" as="geometry" />
        </mxCell>
        <mxCell id="TffWgvNhqmHeZFF0g053-6" value="&lt;div&gt;+ AppName: string&lt;/div&gt;&lt;div&gt;+ AppVersion: string&lt;/div&gt;&lt;div&gt;+ OrgName: string&lt;/div&gt;&lt;div&gt;+ FrontendInitialHTML: string&lt;/div&gt;&lt;div&gt;+ DebugMode: bool&lt;/div&gt;&lt;div&gt;&lt;br&gt;&lt;/div&gt;" style="text;strokeColor=none;fillColor=none;align=left;verticalAlign=top;spacingLeft=4;spacingRight=4;overflow=hidden;rotatable=0;points=[[0,0.5],[1,0.5]];portConstraint=eastwest;whiteSpace=wrap;html=1;" parent="TffWgvNhqmHeZFF0g053-5" vertex="1">
          <mxGeometry y="26" width="170" height="84" as="geometry" />
        </mxCell>
        <mxCell id="TffWgvNhqmHeZFF0g053-7" value="" style="line;strokeWidth=1;fillColor=none;align=left;verticalAlign=middle;spacingTop=-1;spacingLeft=3;spacingRight=3;rotatable=0;labelPosition=right;points=[];portConstraint=eastwest;strokeColor=inherit;" parent="TffWgvNhqmHeZFF0g053-5" vertex="1">
          <mxGeometry y="110" width="170" height="8" as="geometry" />
        </mxCell>
        <mxCell id="TffWgvNhqmHeZFF0g053-9" value="WindowConfig" style="swimlane;fontStyle=1;align=center;verticalAlign=top;childLayout=stackLayout;horizontal=1;startSize=26;horizontalStack=0;resizeParent=1;resizeParentMax=0;resizeLast=0;collapsible=1;marginBottom=0;whiteSpace=wrap;html=1;" parent="1" vertex="1">
          <mxGeometry x="325" y="44" width="160" height="142" as="geometry" />
        </mxCell>
        <mxCell id="TffWgvNhqmHeZFF0g053-10" value="&lt;div&gt;+ Title: string&lt;/div&gt;&lt;div&gt;+ Width: int&lt;/div&gt;&lt;div&gt;+ Height: int&lt;/div&gt;&lt;div&gt;+ MinWidth: int&lt;/div&gt;&lt;div&gt;+ MinHeight: int&lt;/div&gt;&lt;div&gt;&lt;div&gt;+ MaxWidth: int&lt;/div&gt;&lt;div&gt;+ MaxHeight: int&lt;/div&gt;&lt;/div&gt;" style="text;strokeColor=none;fillColor=none;align=left;verticalAlign=top;spacingLeft=4;spacingRight=4;overflow=hidden;rotatable=0;points=[[0,0.5],[1,0.5]];portConstraint=eastwest;whiteSpace=wrap;html=1;" parent="TffWgvNhqmHeZFF0g053-9" vertex="1">
          <mxGeometry y="26" width="160" height="114" as="geometry" />
        </mxCell>
        <mxCell id="TffWgvNhqmHeZFF0g053-11" value="" style="line;strokeWidth=1;fillColor=none;align=left;verticalAlign=middle;spacingTop=-1;spacingLeft=3;spacingRight=3;rotatable=0;labelPosition=right;points=[];portConstraint=eastwest;strokeColor=inherit;" parent="TffWgvNhqmHeZFF0g053-9" vertex="1">
          <mxGeometry y="140" width="160" height="2" as="geometry" />
        </mxCell>
        <mxCell id="TffWgvNhqmHeZFF0g053-21" value="&lt;div&gt;&lt;font style=&quot;font-size: 10px;&quot;&gt;&amp;lt;&amp;lt;Enum&amp;gt;&amp;gt;&lt;/font&gt;&lt;/div&gt;SecurityMode" style="swimlane;fontStyle=0;childLayout=stackLayout;horizontal=1;startSize=40;fillColor=none;horizontalStack=0;resizeParent=1;resizeParentMax=0;resizeLast=0;collapsible=1;marginBottom=0;whiteSpace=wrap;html=1;" parent="1" vertex="1">
          <mxGeometry x="550" y="42" width="140" height="144" as="geometry" />
        </mxCell>
        <mxCell id="TffWgvNhqmHeZFF0g053-22" value="+ NONE" style="text;strokeColor=none;fillColor=none;align=left;verticalAlign=top;spacingLeft=4;spacingRight=4;overflow=hidden;rotatable=0;points=[[0,0.5],[1,0.5]];portConstraint=eastwest;whiteSpace=wrap;html=1;" parent="TffWgvNhqmHeZFF0g053-21" vertex="1">
          <mxGeometry y="40" width="140" height="26" as="geometry" />
        </mxCell>
        <mxCell id="TffWgvNhqmHeZFF0g053-23" value="+ DEV" style="text;strokeColor=none;fillColor=none;align=left;verticalAlign=top;spacingLeft=4;spacingRight=4;overflow=hidden;rotatable=0;points=[[0,0.5],[1,0.5]];portConstraint=eastwest;whiteSpace=wrap;html=1;" parent="TffWgvNhqmHeZFF0g053-21" vertex="1">
          <mxGeometry y="66" width="140" height="26" as="geometry" />
        </mxCell>
        <mxCell id="TffWgvNhqmHeZFF0g053-24" value="+ INTEGRITY" style="text;strokeColor=none;fillColor=none;align=left;verticalAlign=top;spacingLeft=4;spacingRight=4;overflow=hidden;rotatable=0;points=[[0,0.5],[1,0.5]];portConstraint=eastwest;whiteSpace=wrap;html=1;" parent="TffWgvNhqmHeZFF0g053-21" vertex="1">
          <mxGeometry y="92" width="140" height="26" as="geometry" />
        </mxCell>
        <mxCell id="TffWgvNhqmHeZFF0g053-28" value="+ HARDENED" style="text;strokeColor=none;fillColor=none;align=left;verticalAlign=top;spacingLeft=4;spacingRight=4;overflow=hidden;rotatable=0;points=[[0,0.5],[1,0.5]];portConstraint=eastwest;whiteSpace=wrap;html=1;" parent="TffWgvNhqmHeZFF0g053-21" vertex="1">
          <mxGeometry y="118" width="140" height="26" as="geometry" />
        </mxCell>
        <mxCell id="TffWgvNhqmHeZFF0g053-36" style="edgeStyle=orthogonalEdgeStyle;rounded=0;orthogonalLoop=1;jettySize=auto;html=1;entryX=0.5;entryY=1;entryDx=0;entryDy=0;" parent="1" source="TffWgvNhqmHeZFF0g053-31" target="TffWgvNhqmHeZFF0g053-5" edge="1">
          <mxGeometry relative="1" as="geometry" />
        </mxCell>
        <mxCell id="TffWgvNhqmHeZFF0g053-53" style="edgeStyle=orthogonalEdgeStyle;rounded=0;orthogonalLoop=1;jettySize=auto;html=1;" parent="1" source="TffWgvNhqmHeZFF0g053-31" target="TffWgvNhqmHeZFF0g053-83" edge="1">
          <mxGeometry relative="1" as="geometry">
            <Array as="points">
              <mxPoint x="550" y="523" />
              <mxPoint x="550" y="840" />
              <mxPoint x="1393" y="840" />
            </Array>
            <mxPoint x="597.5" y="592.5" as="targetPoint" />
          </mxGeometry>
        </mxCell>
        <mxCell id="TffWgvNhqmHeZFF0g053-31" value="AppLauncher" style="swimlane;fontStyle=1;align=center;verticalAlign=top;childLayout=stackLayout;horizontal=1;startSize=26;horizontalStack=0;resizeParent=1;resizeParentMax=0;resizeLast=0;collapsible=1;marginBottom=0;whiteSpace=wrap;html=1;" parent="1" vertex="1">
          <mxGeometry x="312.5" y="458" width="185" height="130" as="geometry" />
        </mxCell>
        <mxCell id="TffWgvNhqmHeZFF0g053-33" value="" style="line;strokeWidth=1;fillColor=none;align=left;verticalAlign=middle;spacingTop=-1;spacingLeft=3;spacingRight=3;rotatable=0;labelPosition=right;points=[];portConstraint=eastwest;strokeColor=inherit;" parent="TffWgvNhqmHeZFF0g053-31" vertex="1">
          <mxGeometry y="26" width="185" height="8" as="geometry" />
        </mxCell>
        <mxCell id="TffWgvNhqmHeZFF0g053-34" value="&lt;div&gt;+ AppLauncher(Config config)&lt;/div&gt;&lt;div&gt;+ Run()&lt;/div&gt;&lt;div&gt;- SetupSecurity()&lt;/div&gt;&lt;div&gt;- SetupWebView()&lt;/div&gt;&lt;div&gt;- SetupIPC()&lt;/div&gt;&lt;div&gt;- LoadUI()&lt;/div&gt;" style="text;strokeColor=none;fillColor=none;align=left;verticalAlign=top;spacingLeft=4;spacingRight=4;overflow=hidden;rotatable=0;points=[[0,0.5],[1,0.5]];portConstraint=eastwest;whiteSpace=wrap;html=1;" parent="TffWgvNhqmHeZFF0g053-31" vertex="1">
          <mxGeometry y="34" width="185" height="96" as="geometry" />
        </mxCell>
        <mxCell id="TffWgvNhqmHeZFF0g053-35" style="edgeStyle=orthogonalEdgeStyle;rounded=0;orthogonalLoop=1;jettySize=auto;html=1;entryX=-0.003;entryY=0.275;entryDx=0;entryDy=0;entryPerimeter=0;" parent="1" source="TffWgvNhqmHeZFF0g053-2" target="TffWgvNhqmHeZFF0g053-34" edge="1">
          <mxGeometry relative="1" as="geometry">
            <mxPoint x="325" y="539" as="targetPoint" />
          </mxGeometry>
        </mxCell>
        <mxCell id="TffWgvNhqmHeZFF0g053-46" value="IPCBridge" style="swimlane;fontStyle=1;align=center;verticalAlign=top;childLayout=stackLayout;horizontal=1;startSize=26;horizontalStack=0;resizeParent=1;resizeParentMax=0;resizeLast=0;collapsible=1;marginBottom=0;whiteSpace=wrap;html=1;" parent="1" vertex="1">
          <mxGeometry x="610" y="361" width="220" height="90" as="geometry" />
        </mxCell>
        <mxCell id="TffWgvNhqmHeZFF0g053-48" value="" style="line;strokeWidth=1;fillColor=none;align=left;verticalAlign=middle;spacingTop=-1;spacingLeft=3;spacingRight=3;rotatable=0;labelPosition=right;points=[];portConstraint=eastwest;strokeColor=inherit;" parent="TffWgvNhqmHeZFF0g053-46" vertex="1">
          <mxGeometry y="26" width="220" height="8" as="geometry" />
        </mxCell>
        <mxCell id="TffWgvNhqmHeZFF0g053-49" value="+ StartBackend(string path)&lt;div&gt;+ SendToFrontend&lt;span style=&quot;background-color: transparent; color: light-dark(rgb(0, 0, 0), rgb(255, 255, 255));&quot;&gt;(string msg)&lt;/span&gt;&lt;/div&gt;&lt;div&gt;+ SendToBackend(string msg)&lt;/div&gt;" style="text;strokeColor=none;fillColor=none;align=left;verticalAlign=top;spacingLeft=4;spacingRight=4;overflow=hidden;rotatable=0;points=[[0,0.5],[1,0.5]];portConstraint=eastwest;whiteSpace=wrap;html=1;" parent="TffWgvNhqmHeZFF0g053-46" vertex="1">
          <mxGeometry y="34" width="220" height="56" as="geometry" />
        </mxCell>
        <mxCell id="TffWgvNhqmHeZFF0g053-51" style="edgeStyle=orthogonalEdgeStyle;rounded=0;orthogonalLoop=1;jettySize=auto;html=1;entryX=-0.003;entryY=0.208;entryDx=0;entryDy=0;entryPerimeter=0;" parent="1" source="TffWgvNhqmHeZFF0g053-31" target="_IW5eeZVro9ZEbm1nzwe-44" edge="1">
          <mxGeometry relative="1" as="geometry">
            <mxPoint x="609.52" y="523.578" as="targetPoint" />
          </mxGeometry>
        </mxCell>
        <mxCell id="TffWgvNhqmHeZFF0g053-52" style="edgeStyle=orthogonalEdgeStyle;rounded=0;orthogonalLoop=1;jettySize=auto;html=1;entryX=-0.017;entryY=-0.104;entryDx=0;entryDy=0;entryPerimeter=0;exitX=1;exitY=0.5;exitDx=0;exitDy=0;" parent="1" source="TffWgvNhqmHeZFF0g053-31" target="TffWgvNhqmHeZFF0g053-49" edge="1">
          <mxGeometry relative="1" as="geometry" />
        </mxCell>
        <mxCell id="TffWgvNhqmHeZFF0g053-54" value="&lt;div&gt;&lt;font style=&quot;font-size: 10px;&quot;&gt;&amp;lt;&amp;lt;Interface&amp;gt;&amp;gt;&lt;/font&gt;&lt;/div&gt;ISecurityFactory" style="swimlane;fontStyle=1;align=center;verticalAlign=top;childLayout=stackLayout;horizontal=1;startSize=46;horizontalStack=0;resizeParent=1;resizeParentMax=0;resizeLast=0;collapsible=1;marginBottom=0;whiteSpace=wrap;html=1;" parent="1" vertex="1">
          <mxGeometry x="520" y="916" width="330" height="110" as="geometry" />
        </mxCell>
        <mxCell id="TffWgvNhqmHeZFF0g053-56" value="" style="line;strokeWidth=1;fillColor=none;align=left;verticalAlign=middle;spacingTop=-1;spacingLeft=3;spacingRight=3;rotatable=0;labelPosition=right;points=[];portConstraint=eastwest;strokeColor=inherit;" parent="TffWgvNhqmHeZFF0g053-54" vertex="1">
          <mxGeometry y="46" width="330" height="8" as="geometry" />
        </mxCell>
        <mxCell id="TffWgvNhqmHeZFF0g053-57" value="+ CreateStrategy(SecurityMode mode): ISecurityStrategy&lt;div&gt;&lt;br&gt;&lt;/div&gt;" style="text;strokeColor=none;fillColor=none;align=left;verticalAlign=top;spacingLeft=4;spacingRight=4;overflow=hidden;rotatable=0;points=[[0,0.5],[1,0.5]];portConstraint=eastwest;whiteSpace=wrap;html=1;" parent="TffWgvNhqmHeZFF0g053-54" vertex="1">
          <mxGeometry y="54" width="330" height="56" as="geometry" />
        </mxCell>
        <mxCell id="TffWgvNhqmHeZFF0g053-71" style="edgeStyle=orthogonalEdgeStyle;rounded=0;orthogonalLoop=1;jettySize=auto;html=1;endArrow=block;endFill=0;dashed=1;" parent="1" source="TffWgvNhqmHeZFF0g053-61" target="TffWgvNhqmHeZFF0g053-54" edge="1">
          <mxGeometry relative="1" as="geometry" />
        </mxCell>
        <mxCell id="TffWgvNhqmHeZFF0g053-153" style="edgeStyle=orthogonalEdgeStyle;rounded=0;orthogonalLoop=1;jettySize=auto;html=1;entryX=0.5;entryY=1;entryDx=0;entryDy=0;exitX=0.5;exitY=1;exitDx=0;exitDy=0;endArrow=open;endFill=0;dashed=1;" parent="1" source="TffWgvNhqmHeZFF0g053-61" target="TffWgvNhqmHeZFF0g053-112" edge="1">
          <mxGeometry relative="1" as="geometry" />
        </mxCell>
        <mxCell id="TffWgvNhqmHeZFF0g053-154" style="edgeStyle=orthogonalEdgeStyle;rounded=0;orthogonalLoop=1;jettySize=auto;html=1;entryX=0.5;entryY=1;entryDx=0;entryDy=0;exitX=0.5;exitY=1;exitDx=0;exitDy=0;endArrow=open;endFill=0;dashed=1;" parent="1" source="TffWgvNhqmHeZFF0g053-61" target="TffWgvNhqmHeZFF0g053-115" edge="1">
          <mxGeometry relative="1" as="geometry" />
        </mxCell>
        <mxCell id="TffWgvNhqmHeZFF0g053-155" style="edgeStyle=orthogonalEdgeStyle;rounded=0;orthogonalLoop=1;jettySize=auto;html=1;entryX=0.5;entryY=1;entryDx=0;entryDy=0;exitX=0.5;exitY=1;exitDx=0;exitDy=0;endArrow=open;endFill=0;dashed=1;" parent="1" source="TffWgvNhqmHeZFF0g053-61" target="TffWgvNhqmHeZFF0g053-118" edge="1">
          <mxGeometry relative="1" as="geometry" />
        </mxCell>
        <mxCell id="TffWgvNhqmHeZFF0g053-156" style="edgeStyle=orthogonalEdgeStyle;rounded=0;orthogonalLoop=1;jettySize=auto;html=1;entryX=0.5;entryY=1;entryDx=0;entryDy=0;exitX=0.5;exitY=1;exitDx=0;exitDy=0;endArrow=open;endFill=0;dashed=1;" parent="1" source="TffWgvNhqmHeZFF0g053-61" target="TffWgvNhqmHeZFF0g053-121" edge="1">
          <mxGeometry relative="1" as="geometry" />
        </mxCell>
        <mxCell id="TffWgvNhqmHeZFF0g053-61" value="WindowsSecurityFactory" style="swimlane;fontStyle=0;childLayout=stackLayout;horizontal=1;startSize=26;fillColor=none;horizontalStack=0;resizeParent=1;resizeParentMax=0;resizeLast=0;collapsible=1;marginBottom=0;whiteSpace=wrap;html=1;" parent="1" vertex="1">
          <mxGeometry x="420" y="1072" width="160" height="52" as="geometry" />
        </mxCell>
        <mxCell id="TffWgvNhqmHeZFF0g053-70" style="edgeStyle=orthogonalEdgeStyle;rounded=0;orthogonalLoop=1;jettySize=auto;html=1;endArrow=block;endFill=0;dashed=1;" parent="1" source="TffWgvNhqmHeZFF0g053-67" target="TffWgvNhqmHeZFF0g053-54" edge="1">
          <mxGeometry relative="1" as="geometry" />
        </mxCell>
        <mxCell id="TffWgvNhqmHeZFF0g053-149" style="edgeStyle=orthogonalEdgeStyle;rounded=0;orthogonalLoop=1;jettySize=auto;html=1;entryX=0.5;entryY=1;entryDx=0;entryDy=0;exitX=0.5;exitY=1;exitDx=0;exitDy=0;dashed=1;endArrow=open;endFill=0;" parent="1" source="TffWgvNhqmHeZFF0g053-67" target="TffWgvNhqmHeZFF0g053-113" edge="1">
          <mxGeometry relative="1" as="geometry" />
        </mxCell>
        <mxCell id="TffWgvNhqmHeZFF0g053-150" style="edgeStyle=orthogonalEdgeStyle;rounded=0;orthogonalLoop=1;jettySize=auto;html=1;entryX=0.5;entryY=1;entryDx=0;entryDy=0;exitX=0.5;exitY=1;exitDx=0;exitDy=0;dashed=1;endArrow=open;endFill=0;" parent="1" source="TffWgvNhqmHeZFF0g053-67" target="TffWgvNhqmHeZFF0g053-116" edge="1">
          <mxGeometry relative="1" as="geometry" />
        </mxCell>
        <mxCell id="TffWgvNhqmHeZFF0g053-151" style="edgeStyle=orthogonalEdgeStyle;rounded=0;orthogonalLoop=1;jettySize=auto;html=1;entryX=0.5;entryY=1;entryDx=0;entryDy=0;exitX=0.5;exitY=1;exitDx=0;exitDy=0;dashed=1;endArrow=open;endFill=0;" parent="1" source="TffWgvNhqmHeZFF0g053-67" target="TffWgvNhqmHeZFF0g053-119" edge="1">
          <mxGeometry relative="1" as="geometry" />
        </mxCell>
        <mxCell id="TffWgvNhqmHeZFF0g053-152" style="edgeStyle=orthogonalEdgeStyle;rounded=0;orthogonalLoop=1;jettySize=auto;html=1;entryX=0.5;entryY=1;entryDx=0;entryDy=0;exitX=0.5;exitY=1;exitDx=0;exitDy=0;dashed=1;endArrow=open;endFill=0;" parent="1" source="TffWgvNhqmHeZFF0g053-67" target="TffWgvNhqmHeZFF0g053-122" edge="1">
          <mxGeometry relative="1" as="geometry" />
        </mxCell>
        <mxCell id="TffWgvNhqmHeZFF0g053-67" value="LinuxSecurityFactory" style="swimlane;fontStyle=0;childLayout=stackLayout;horizontal=1;startSize=26;fillColor=none;horizontalStack=0;resizeParent=1;resizeParentMax=0;resizeLast=0;collapsible=1;marginBottom=0;whiteSpace=wrap;html=1;" parent="1" vertex="1">
          <mxGeometry x="605" y="1072" width="160" height="52" as="geometry" />
        </mxCell>
        <mxCell id="TffWgvNhqmHeZFF0g053-69" style="edgeStyle=orthogonalEdgeStyle;rounded=0;orthogonalLoop=1;jettySize=auto;html=1;endArrow=block;endFill=0;dashed=1;" parent="1" source="TffWgvNhqmHeZFF0g053-68" target="TffWgvNhqmHeZFF0g053-54" edge="1">
          <mxGeometry relative="1" as="geometry" />
        </mxCell>
        <mxCell id="TffWgvNhqmHeZFF0g053-145" style="edgeStyle=orthogonalEdgeStyle;rounded=0;orthogonalLoop=1;jettySize=auto;html=1;entryX=0.5;entryY=1;entryDx=0;entryDy=0;endArrow=open;endFill=0;dashed=1;" parent="1" source="TffWgvNhqmHeZFF0g053-68" target="TffWgvNhqmHeZFF0g053-114" edge="1">
          <mxGeometry relative="1" as="geometry" />
        </mxCell>
        <mxCell id="TffWgvNhqmHeZFF0g053-146" style="edgeStyle=orthogonalEdgeStyle;rounded=0;orthogonalLoop=1;jettySize=auto;html=1;entryX=0.5;entryY=1;entryDx=0;entryDy=0;exitX=0.5;exitY=1;exitDx=0;exitDy=0;endArrow=open;endFill=0;dashed=1;" parent="1" source="TffWgvNhqmHeZFF0g053-68" target="TffWgvNhqmHeZFF0g053-117" edge="1">
          <mxGeometry relative="1" as="geometry" />
        </mxCell>
        <mxCell id="TffWgvNhqmHeZFF0g053-147" style="edgeStyle=orthogonalEdgeStyle;rounded=0;orthogonalLoop=1;jettySize=auto;html=1;entryX=0.5;entryY=1;entryDx=0;entryDy=0;exitX=0.5;exitY=1;exitDx=0;exitDy=0;endArrow=open;endFill=0;dashed=1;" parent="1" source="TffWgvNhqmHeZFF0g053-68" target="TffWgvNhqmHeZFF0g053-120" edge="1">
          <mxGeometry relative="1" as="geometry" />
        </mxCell>
        <mxCell id="TffWgvNhqmHeZFF0g053-148" style="edgeStyle=orthogonalEdgeStyle;rounded=0;orthogonalLoop=1;jettySize=auto;html=1;entryX=0.5;entryY=1;entryDx=0;entryDy=0;endArrow=open;endFill=0;dashed=1;exitX=0.5;exitY=1;exitDx=0;exitDy=0;" parent="1" source="TffWgvNhqmHeZFF0g053-68" target="TffWgvNhqmHeZFF0g053-123" edge="1">
          <mxGeometry relative="1" as="geometry" />
        </mxCell>
        <mxCell id="TffWgvNhqmHeZFF0g053-68" value="AndroidSecurityFactory" style="swimlane;fontStyle=0;childLayout=stackLayout;horizontal=1;startSize=26;fillColor=none;horizontalStack=0;resizeParent=1;resizeParentMax=0;resizeLast=0;collapsible=1;marginBottom=0;whiteSpace=wrap;html=1;" parent="1" vertex="1">
          <mxGeometry x="790" y="1072" width="160" height="52" as="geometry" />
        </mxCell>
        <mxCell id="TffWgvNhqmHeZFF0g053-79" style="edgeStyle=orthogonalEdgeStyle;rounded=0;orthogonalLoop=1;jettySize=auto;html=1;dashed=1;entryX=0;entryY=0.268;entryDx=0;entryDy=0;entryPerimeter=0;" parent="1" source="TffWgvNhqmHeZFF0g053-75" target="TffWgvNhqmHeZFF0g053-57" edge="1">
          <mxGeometry relative="1" as="geometry" />
        </mxCell>
        <mxCell id="TffWgvNhqmHeZFF0g053-80" value="use" style="edgeLabel;html=1;align=center;verticalAlign=middle;resizable=0;points=[];" parent="TffWgvNhqmHeZFF0g053-79" vertex="1" connectable="0">
          <mxGeometry x="-0.0124" relative="1" as="geometry">
            <mxPoint x="-25" y="-53" as="offset" />
          </mxGeometry>
        </mxCell>
        <mxCell id="TffWgvNhqmHeZFF0g053-75" value="&lt;div&gt;&lt;font style=&quot;font-size: 10px;&quot;&gt;&amp;lt;&amp;lt;Static&amp;gt;&amp;gt;&lt;/font&gt;&lt;/div&gt;SecurityFactoryProvider" style="swimlane;fontStyle=1;align=center;verticalAlign=top;childLayout=stackLayout;horizontal=1;startSize=36;horizontalStack=0;resizeParent=1;resizeParentMax=0;resizeLast=0;collapsible=1;marginBottom=0;whiteSpace=wrap;html=1;" parent="1" vertex="1">
          <mxGeometry x="312.5" y="780" width="185" height="70" as="geometry" />
        </mxCell>
        <mxCell id="TffWgvNhqmHeZFF0g053-77" value="" style="line;strokeWidth=1;fillColor=none;align=left;verticalAlign=middle;spacingTop=-1;spacingLeft=3;spacingRight=3;rotatable=0;labelPosition=right;points=[];portConstraint=eastwest;strokeColor=inherit;" parent="TffWgvNhqmHeZFF0g053-75" vertex="1">
          <mxGeometry y="36" width="185" height="8" as="geometry" />
        </mxCell>
        <mxCell id="TffWgvNhqmHeZFF0g053-78" value="+ GetFactory(): ISecurityFactory" style="text;strokeColor=none;fillColor=none;align=left;verticalAlign=top;spacingLeft=4;spacingRight=4;overflow=hidden;rotatable=0;points=[[0,0.5],[1,0.5]];portConstraint=eastwest;whiteSpace=wrap;html=1;" parent="TffWgvNhqmHeZFF0g053-75" vertex="1">
          <mxGeometry y="44" width="185" height="26" as="geometry" />
        </mxCell>
        <mxCell id="TffWgvNhqmHeZFF0g053-81" style="edgeStyle=orthogonalEdgeStyle;rounded=0;orthogonalLoop=1;jettySize=auto;html=1;dashed=1;exitX=0.5;exitY=1;exitDx=0;exitDy=0;exitPerimeter=0;" parent="1" source="TffWgvNhqmHeZFF0g053-34" target="TffWgvNhqmHeZFF0g053-75" edge="1">
          <mxGeometry relative="1" as="geometry">
            <mxPoint x="930" y="613" as="targetPoint" />
            <mxPoint x="684.98" y="647.5999999999999" as="sourcePoint" />
          </mxGeometry>
        </mxCell>
        <mxCell id="TffWgvNhqmHeZFF0g053-82" value="use" style="edgeLabel;html=1;align=center;verticalAlign=middle;resizable=0;points=[];" parent="TffWgvNhqmHeZFF0g053-81" vertex="1" connectable="0">
          <mxGeometry x="0.0191" y="-1" relative="1" as="geometry">
            <mxPoint x="16" as="offset" />
          </mxGeometry>
        </mxCell>
        <mxCell id="TffWgvNhqmHeZFF0g053-83" value="&lt;div&gt;&lt;font style=&quot;font-size: 10px;&quot;&gt;&amp;lt;&amp;lt;Interface&amp;gt;&amp;gt;&lt;/font&gt;&lt;/div&gt;ISecurityStrategy" style="swimlane;fontStyle=1;align=center;verticalAlign=top;childLayout=stackLayout;horizontal=1;startSize=46;horizontalStack=0;resizeParent=1;resizeParentMax=0;resizeLast=0;collapsible=1;marginBottom=0;whiteSpace=wrap;html=1;" parent="1" vertex="1">
          <mxGeometry x="1228" y="900" width="330" height="100" as="geometry" />
        </mxCell>
        <mxCell id="TffWgvNhqmHeZFF0g053-84" value="" style="line;strokeWidth=1;fillColor=none;align=left;verticalAlign=middle;spacingTop=-1;spacingLeft=3;spacingRight=3;rotatable=0;labelPosition=right;points=[];portConstraint=eastwest;strokeColor=inherit;" parent="TffWgvNhqmHeZFF0g053-83" vertex="1">
          <mxGeometry y="46" width="330" height="8" as="geometry" />
        </mxCell>
        <mxCell id="TffWgvNhqmHeZFF0g053-85" value="+ VerifyIntegrity()&lt;div&gt;+ ApplyPolicies()&lt;/div&gt;" style="text;strokeColor=none;fillColor=none;align=left;verticalAlign=top;spacingLeft=4;spacingRight=4;overflow=hidden;rotatable=0;points=[[0,0.5],[1,0.5]];portConstraint=eastwest;whiteSpace=wrap;html=1;" parent="TffWgvNhqmHeZFF0g053-83" vertex="1">
          <mxGeometry y="54" width="330" height="46" as="geometry" />
        </mxCell>
        <mxCell id="TffWgvNhqmHeZFF0g053-86" value="&lt;div&gt;&lt;div&gt;&lt;font style=&quot;font-size: 10px;&quot;&gt;&amp;lt;&amp;lt;Abstract&amp;gt;&amp;gt;&lt;/font&gt;&lt;/div&gt;&lt;/div&gt;NoneStrategy" style="swimlane;fontStyle=0;childLayout=stackLayout;horizontal=1;startSize=38;fillColor=none;horizontalStack=0;resizeParent=1;resizeParentMax=0;resizeLast=0;collapsible=1;marginBottom=0;whiteSpace=wrap;html=1;" parent="1" vertex="1">
          <mxGeometry x="1058" y="1072" width="160" height="52" as="geometry" />
        </mxCell>
        <mxCell id="TffWgvNhqmHeZFF0g053-87" value="&lt;div&gt;&lt;div&gt;&lt;font style=&quot;font-size: 10px;&quot;&gt;&amp;lt;&amp;lt;Abstract&amp;gt;&amp;gt;&lt;/font&gt;&lt;/div&gt;&lt;/div&gt;DevStrategy" style="swimlane;fontStyle=0;childLayout=stackLayout;horizontal=1;startSize=38;fillColor=none;horizontalStack=0;resizeParent=1;resizeParentMax=0;resizeLast=0;collapsible=1;marginBottom=0;whiteSpace=wrap;html=1;" parent="1" vertex="1">
          <mxGeometry x="1228" y="1072" width="160" height="52" as="geometry" />
        </mxCell>
        <mxCell id="TffWgvNhqmHeZFF0g053-88" value="&lt;div&gt;&lt;div&gt;&lt;font style=&quot;font-size: 10px;&quot;&gt;&amp;lt;&amp;lt;Abstract&amp;gt;&amp;gt;&lt;/font&gt;&lt;/div&gt;&lt;/div&gt;IntegrityStrategy" style="swimlane;fontStyle=0;childLayout=stackLayout;horizontal=1;startSize=38;fillColor=none;horizontalStack=0;resizeParent=1;resizeParentMax=0;resizeLast=0;collapsible=1;marginBottom=0;whiteSpace=wrap;html=1;" parent="1" vertex="1">
          <mxGeometry x="1398" y="1073" width="160" height="52" as="geometry" />
        </mxCell>
        <mxCell id="TffWgvNhqmHeZFF0g053-89" value="&lt;div&gt;&lt;font style=&quot;font-size: 10px;&quot;&gt;&amp;lt;&amp;lt;Abstract&amp;gt;&amp;gt;&lt;/font&gt;&lt;/div&gt;HardenedStrategy" style="swimlane;fontStyle=0;childLayout=stackLayout;horizontal=1;startSize=38;fillColor=none;horizontalStack=0;resizeParent=1;resizeParentMax=0;resizeLast=0;collapsible=1;marginBottom=0;whiteSpace=wrap;html=1;" parent="1" vertex="1">
          <mxGeometry x="1568" y="1072" width="160" height="52" as="geometry" />
        </mxCell>
        <mxCell id="TffWgvNhqmHeZFF0g053-90" style="edgeStyle=orthogonalEdgeStyle;rounded=0;orthogonalLoop=1;jettySize=auto;html=1;dashed=1;endArrow=block;endFill=0;exitX=0.5;exitY=0;exitDx=0;exitDy=0;" parent="1" source="TffWgvNhqmHeZFF0g053-86" target="TffWgvNhqmHeZFF0g053-83" edge="1">
          <mxGeometry relative="1" as="geometry" />
        </mxCell>
        <mxCell id="TffWgvNhqmHeZFF0g053-91" style="edgeStyle=orthogonalEdgeStyle;rounded=0;orthogonalLoop=1;jettySize=auto;html=1;dashed=1;endArrow=block;endFill=0;" parent="1" source="TffWgvNhqmHeZFF0g053-87" target="TffWgvNhqmHeZFF0g053-83" edge="1">
          <mxGeometry relative="1" as="geometry" />
        </mxCell>
        <mxCell id="TffWgvNhqmHeZFF0g053-92" style="edgeStyle=orthogonalEdgeStyle;rounded=0;orthogonalLoop=1;jettySize=auto;html=1;dashed=1;endArrow=block;endFill=0;" parent="1" source="TffWgvNhqmHeZFF0g053-88" target="TffWgvNhqmHeZFF0g053-83" edge="1">
          <mxGeometry relative="1" as="geometry" />
        </mxCell>
        <mxCell id="TffWgvNhqmHeZFF0g053-93" style="edgeStyle=orthogonalEdgeStyle;rounded=0;orthogonalLoop=1;jettySize=auto;html=1;dashed=1;endArrow=block;endFill=0;exitX=0.5;exitY=0;exitDx=0;exitDy=0;" parent="1" source="TffWgvNhqmHeZFF0g053-89" target="TffWgvNhqmHeZFF0g053-83" edge="1">
          <mxGeometry relative="1" as="geometry" />
        </mxCell>
        <mxCell id="TffWgvNhqmHeZFF0g053-94" value="&lt;div&gt;&lt;font style=&quot;font-size: 10px;&quot;&gt;&amp;lt;&amp;lt;Interface&amp;gt;&amp;gt;&lt;/font&gt;&lt;/div&gt;ISigner" style="swimlane;fontStyle=1;align=center;verticalAlign=top;childLayout=stackLayout;horizontal=1;startSize=46;horizontalStack=0;resizeParent=1;resizeParentMax=0;resizeLast=0;collapsible=1;marginBottom=0;whiteSpace=wrap;html=1;" parent="1" vertex="1">
          <mxGeometry x="2125" y="1010" width="330" height="90" as="geometry" />
        </mxCell>
        <mxCell id="TffWgvNhqmHeZFF0g053-95" value="" style="line;strokeWidth=1;fillColor=none;align=left;verticalAlign=middle;spacingTop=-1;spacingLeft=3;spacingRight=3;rotatable=0;labelPosition=right;points=[];portConstraint=eastwest;strokeColor=inherit;" parent="TffWgvNhqmHeZFF0g053-94" vertex="1">
          <mxGeometry y="46" width="330" height="8" as="geometry" />
        </mxCell>
        <mxCell id="TffWgvNhqmHeZFF0g053-96" value="+ SignExecutable(string path)&lt;div&gt;&lt;br&gt;&lt;/div&gt;" style="text;strokeColor=none;fillColor=none;align=left;verticalAlign=top;spacingLeft=4;spacingRight=4;overflow=hidden;rotatable=0;points=[[0,0.5],[1,0.5]];portConstraint=eastwest;whiteSpace=wrap;html=1;" parent="TffWgvNhqmHeZFF0g053-94" vertex="1">
          <mxGeometry y="54" width="330" height="36" as="geometry" />
        </mxCell>
        <mxCell id="TffWgvNhqmHeZFF0g053-100" style="edgeStyle=orthogonalEdgeStyle;rounded=0;orthogonalLoop=1;jettySize=auto;html=1;dashed=1;endArrow=block;endFill=0;" parent="1" source="TffWgvNhqmHeZFF0g053-97" target="TffWgvNhqmHeZFF0g053-94" edge="1">
          <mxGeometry relative="1" as="geometry" />
        </mxCell>
        <mxCell id="TffWgvNhqmHeZFF0g053-97" value="WindowsSigner" style="swimlane;fontStyle=0;childLayout=stackLayout;horizontal=1;startSize=26;fillColor=none;horizontalStack=0;resizeParent=1;resizeParentMax=0;resizeLast=0;collapsible=1;marginBottom=0;whiteSpace=wrap;html=1;" parent="1" vertex="1">
          <mxGeometry x="2030" y="1161" width="160" height="52" as="geometry" />
        </mxCell>
        <mxCell id="TffWgvNhqmHeZFF0g053-101" style="edgeStyle=orthogonalEdgeStyle;rounded=0;orthogonalLoop=1;jettySize=auto;html=1;dashed=1;endArrow=block;endFill=0;" parent="1" source="TffWgvNhqmHeZFF0g053-98" target="TffWgvNhqmHeZFF0g053-94" edge="1">
          <mxGeometry relative="1" as="geometry" />
        </mxCell>
        <mxCell id="TffWgvNhqmHeZFF0g053-98" value="LinuxSigner" style="swimlane;fontStyle=0;childLayout=stackLayout;horizontal=1;startSize=26;fillColor=none;horizontalStack=0;resizeParent=1;resizeParentMax=0;resizeLast=0;collapsible=1;marginBottom=0;whiteSpace=wrap;html=1;" parent="1" vertex="1">
          <mxGeometry x="2210" y="1161" width="160" height="52" as="geometry" />
        </mxCell>
        <mxCell id="TffWgvNhqmHeZFF0g053-102" style="edgeStyle=orthogonalEdgeStyle;rounded=0;orthogonalLoop=1;jettySize=auto;html=1;dashed=1;endArrow=block;endFill=0;" parent="1" source="TffWgvNhqmHeZFF0g053-99" target="TffWgvNhqmHeZFF0g053-94" edge="1">
          <mxGeometry relative="1" as="geometry" />
        </mxCell>
        <mxCell id="TffWgvNhqmHeZFF0g053-99" value="AndroidSigner" style="swimlane;fontStyle=0;childLayout=stackLayout;horizontal=1;startSize=26;fillColor=none;horizontalStack=0;resizeParent=1;resizeParentMax=0;resizeLast=0;collapsible=1;marginBottom=0;whiteSpace=wrap;html=1;" parent="1" vertex="1">
          <mxGeometry x="2390" y="1161" width="160" height="52" as="geometry" />
        </mxCell>
        <mxCell id="TffWgvNhqmHeZFF0g053-103" value="&lt;div&gt;&lt;font style=&quot;font-size: 10px;&quot;&gt;&amp;lt;&amp;lt;Interface&amp;gt;&amp;gt;&lt;/font&gt;&lt;/div&gt;IResourceProtector" style="swimlane;fontStyle=1;align=center;verticalAlign=top;childLayout=stackLayout;horizontal=1;startSize=46;horizontalStack=0;resizeParent=1;resizeParentMax=0;resizeLast=0;collapsible=1;marginBottom=0;whiteSpace=wrap;html=1;" parent="1" vertex="1">
          <mxGeometry x="2125" y="1285.5" width="330" height="90" as="geometry" />
        </mxCell>
        <mxCell id="TffWgvNhqmHeZFF0g053-104" value="" style="line;strokeWidth=1;fillColor=none;align=left;verticalAlign=middle;spacingTop=-1;spacingLeft=3;spacingRight=3;rotatable=0;labelPosition=right;points=[];portConstraint=eastwest;strokeColor=inherit;" parent="TffWgvNhqmHeZFF0g053-103" vertex="1">
          <mxGeometry y="46" width="330" height="8" as="geometry" />
        </mxCell>
        <mxCell id="TffWgvNhqmHeZFF0g053-105" value="+ Protect(string path)&lt;div&gt;&lt;br&gt;&lt;/div&gt;" style="text;strokeColor=none;fillColor=none;align=left;verticalAlign=top;spacingLeft=4;spacingRight=4;overflow=hidden;rotatable=0;points=[[0,0.5],[1,0.5]];portConstraint=eastwest;whiteSpace=wrap;html=1;" parent="TffWgvNhqmHeZFF0g053-103" vertex="1">
          <mxGeometry y="54" width="330" height="36" as="geometry" />
        </mxCell>
        <mxCell id="TffWgvNhqmHeZFF0g053-106" style="edgeStyle=orthogonalEdgeStyle;rounded=0;orthogonalLoop=1;jettySize=auto;html=1;dashed=1;endArrow=block;endFill=0;" parent="1" source="TffWgvNhqmHeZFF0g053-107" target="TffWgvNhqmHeZFF0g053-103" edge="1">
          <mxGeometry relative="1" as="geometry" />
        </mxCell>
        <mxCell id="TffWgvNhqmHeZFF0g053-107" value="WindowsProtector" style="swimlane;fontStyle=0;childLayout=stackLayout;horizontal=1;startSize=26;fillColor=none;horizontalStack=0;resizeParent=1;resizeParentMax=0;resizeLast=0;collapsible=1;marginBottom=0;whiteSpace=wrap;html=1;" parent="1" vertex="1">
          <mxGeometry x="2030" y="1436.5" width="160" height="52" as="geometry" />
        </mxCell>
        <mxCell id="TffWgvNhqmHeZFF0g053-108" style="edgeStyle=orthogonalEdgeStyle;rounded=0;orthogonalLoop=1;jettySize=auto;html=1;dashed=1;endArrow=block;endFill=0;" parent="1" source="TffWgvNhqmHeZFF0g053-109" target="TffWgvNhqmHeZFF0g053-103" edge="1">
          <mxGeometry relative="1" as="geometry" />
        </mxCell>
        <mxCell id="TffWgvNhqmHeZFF0g053-109" value="LinuxProtector" style="swimlane;fontStyle=0;childLayout=stackLayout;horizontal=1;startSize=26;fillColor=none;horizontalStack=0;resizeParent=1;resizeParentMax=0;resizeLast=0;collapsible=1;marginBottom=0;whiteSpace=wrap;html=1;" parent="1" vertex="1">
          <mxGeometry x="2210" y="1436.5" width="160" height="52" as="geometry" />
        </mxCell>
        <mxCell id="TffWgvNhqmHeZFF0g053-110" style="edgeStyle=orthogonalEdgeStyle;rounded=0;orthogonalLoop=1;jettySize=auto;html=1;dashed=1;endArrow=block;endFill=0;" parent="1" source="TffWgvNhqmHeZFF0g053-111" target="TffWgvNhqmHeZFF0g053-103" edge="1">
          <mxGeometry relative="1" as="geometry" />
        </mxCell>
        <mxCell id="TffWgvNhqmHeZFF0g053-111" value="AndroidProtector" style="swimlane;fontStyle=0;childLayout=stackLayout;horizontal=1;startSize=26;fillColor=none;horizontalStack=0;resizeParent=1;resizeParentMax=0;resizeLast=0;collapsible=1;marginBottom=0;whiteSpace=wrap;html=1;" parent="1" vertex="1">
          <mxGeometry x="2390" y="1436.5" width="160" height="52" as="geometry" />
        </mxCell>
        <mxCell id="TffWgvNhqmHeZFF0g053-131" style="edgeStyle=orthogonalEdgeStyle;rounded=0;orthogonalLoop=1;jettySize=auto;html=1;endArrow=block;endFill=0;" parent="1" source="TffWgvNhqmHeZFF0g053-112" edge="1">
          <mxGeometry relative="1" as="geometry">
            <mxPoint x="1120" y="1130" as="targetPoint" />
          </mxGeometry>
        </mxCell>
        <mxCell id="TffWgvNhqmHeZFF0g053-112" value="WindowsNoneStrategy" style="swimlane;fontStyle=0;childLayout=stackLayout;horizontal=1;startSize=26;fillColor=none;horizontalStack=0;resizeParent=1;resizeParentMax=0;resizeLast=0;collapsible=1;marginBottom=0;whiteSpace=wrap;html=1;" parent="1" vertex="1">
          <mxGeometry x="940" y="1380" width="160" height="52" as="geometry" />
        </mxCell>
        <mxCell id="TffWgvNhqmHeZFF0g053-130" style="edgeStyle=orthogonalEdgeStyle;rounded=0;orthogonalLoop=1;jettySize=auto;html=1;endArrow=block;endFill=0;" parent="1" source="TffWgvNhqmHeZFF0g053-113" edge="1">
          <mxGeometry relative="1" as="geometry">
            <mxPoint x="1120" y="1130" as="targetPoint" />
          </mxGeometry>
        </mxCell>
        <mxCell id="TffWgvNhqmHeZFF0g053-113" value="LinuxNoneStrategy" style="swimlane;fontStyle=0;childLayout=stackLayout;horizontal=1;startSize=26;fillColor=none;horizontalStack=0;resizeParent=1;resizeParentMax=0;resizeLast=0;collapsible=1;marginBottom=0;whiteSpace=wrap;html=1;" parent="1" vertex="1">
          <mxGeometry x="940" y="1280" width="160" height="52" as="geometry" />
        </mxCell>
        <mxCell id="TffWgvNhqmHeZFF0g053-129" style="edgeStyle=orthogonalEdgeStyle;rounded=0;orthogonalLoop=1;jettySize=auto;html=1;endArrow=block;endFill=0;" parent="1" source="TffWgvNhqmHeZFF0g053-114" edge="1">
          <mxGeometry relative="1" as="geometry">
            <mxPoint x="1120" y="1130" as="targetPoint" />
          </mxGeometry>
        </mxCell>
        <mxCell id="TffWgvNhqmHeZFF0g053-114" value="AndroidNoneStrategy" style="swimlane;fontStyle=0;childLayout=stackLayout;horizontal=1;startSize=26;fillColor=none;horizontalStack=0;resizeParent=1;resizeParentMax=0;resizeLast=0;collapsible=1;marginBottom=0;whiteSpace=wrap;html=1;" parent="1" vertex="1">
          <mxGeometry x="940" y="1180" width="160" height="52" as="geometry" />
        </mxCell>
        <mxCell id="TffWgvNhqmHeZFF0g053-134" style="edgeStyle=orthogonalEdgeStyle;rounded=0;orthogonalLoop=1;jettySize=auto;html=1;endArrow=block;endFill=0;" parent="1" source="TffWgvNhqmHeZFF0g053-115" edge="1">
          <mxGeometry relative="1" as="geometry">
            <mxPoint x="1320" y="1130" as="targetPoint" />
          </mxGeometry>
        </mxCell>
        <mxCell id="TffWgvNhqmHeZFF0g053-115" value="WindowsDevStrategy" style="swimlane;fontStyle=0;childLayout=stackLayout;horizontal=1;startSize=26;fillColor=none;horizontalStack=0;resizeParent=1;resizeParentMax=0;resizeLast=0;collapsible=1;marginBottom=0;whiteSpace=wrap;html=1;" parent="1" vertex="1">
          <mxGeometry x="1140" y="1380" width="160" height="52" as="geometry" />
        </mxCell>
        <mxCell id="TffWgvNhqmHeZFF0g053-133" style="edgeStyle=orthogonalEdgeStyle;rounded=0;orthogonalLoop=1;jettySize=auto;html=1;endArrow=block;endFill=0;" parent="1" source="TffWgvNhqmHeZFF0g053-116" edge="1">
          <mxGeometry relative="1" as="geometry">
            <mxPoint x="1320" y="1130" as="targetPoint" />
          </mxGeometry>
        </mxCell>
        <mxCell id="TffWgvNhqmHeZFF0g053-116" value="LinuxDevStrategy" style="swimlane;fontStyle=0;childLayout=stackLayout;horizontal=1;startSize=26;fillColor=none;horizontalStack=0;resizeParent=1;resizeParentMax=0;resizeLast=0;collapsible=1;marginBottom=0;whiteSpace=wrap;html=1;" parent="1" vertex="1">
          <mxGeometry x="1140" y="1280" width="160" height="52" as="geometry" />
        </mxCell>
        <mxCell id="TffWgvNhqmHeZFF0g053-132" style="edgeStyle=orthogonalEdgeStyle;rounded=0;orthogonalLoop=1;jettySize=auto;html=1;endArrow=block;endFill=0;" parent="1" source="TffWgvNhqmHeZFF0g053-117" edge="1">
          <mxGeometry relative="1" as="geometry">
            <mxPoint x="1320" y="1130" as="targetPoint" />
          </mxGeometry>
        </mxCell>
        <mxCell id="TffWgvNhqmHeZFF0g053-117" value="AndroidDevStrategy" style="swimlane;fontStyle=0;childLayout=stackLayout;horizontal=1;startSize=26;fillColor=none;horizontalStack=0;resizeParent=1;resizeParentMax=0;resizeLast=0;collapsible=1;marginBottom=0;whiteSpace=wrap;html=1;" parent="1" vertex="1">
          <mxGeometry x="1140" y="1180" width="160" height="52" as="geometry" />
        </mxCell>
        <mxCell id="TffWgvNhqmHeZFF0g053-137" style="edgeStyle=orthogonalEdgeStyle;rounded=0;orthogonalLoop=1;jettySize=auto;html=1;endArrow=block;endFill=0;" parent="1" source="TffWgvNhqmHeZFF0g053-118" edge="1">
          <mxGeometry relative="1" as="geometry">
            <mxPoint x="1520" y="1130" as="targetPoint" />
          </mxGeometry>
        </mxCell>
        <mxCell id="TffWgvNhqmHeZFF0g053-118" value="WindowsIntegrityStrategy" style="swimlane;fontStyle=0;childLayout=stackLayout;horizontal=1;startSize=26;fillColor=none;horizontalStack=0;resizeParent=1;resizeParentMax=0;resizeLast=0;collapsible=1;marginBottom=0;whiteSpace=wrap;html=1;" parent="1" vertex="1">
          <mxGeometry x="1340" y="1380" width="160" height="52" as="geometry" />
        </mxCell>
        <mxCell id="TffWgvNhqmHeZFF0g053-136" style="edgeStyle=orthogonalEdgeStyle;rounded=0;orthogonalLoop=1;jettySize=auto;html=1;endArrow=block;endFill=0;" parent="1" source="TffWgvNhqmHeZFF0g053-119" edge="1">
          <mxGeometry relative="1" as="geometry">
            <mxPoint x="1520" y="1130" as="targetPoint" />
          </mxGeometry>
        </mxCell>
        <mxCell id="TffWgvNhqmHeZFF0g053-119" value="LinuxIntegrityStrategy" style="swimlane;fontStyle=0;childLayout=stackLayout;horizontal=1;startSize=26;fillColor=none;horizontalStack=0;resizeParent=1;resizeParentMax=0;resizeLast=0;collapsible=1;marginBottom=0;whiteSpace=wrap;html=1;" parent="1" vertex="1">
          <mxGeometry x="1340" y="1280" width="160" height="52" as="geometry" />
        </mxCell>
        <mxCell id="TffWgvNhqmHeZFF0g053-135" style="edgeStyle=orthogonalEdgeStyle;rounded=0;orthogonalLoop=1;jettySize=auto;html=1;endArrow=block;endFill=0;" parent="1" source="TffWgvNhqmHeZFF0g053-120" edge="1">
          <mxGeometry relative="1" as="geometry">
            <mxPoint x="1520" y="1130" as="targetPoint" />
          </mxGeometry>
        </mxCell>
        <mxCell id="TffWgvNhqmHeZFF0g053-120" value="AndroidIntegrityStrategy" style="swimlane;fontStyle=0;childLayout=stackLayout;horizontal=1;startSize=26;fillColor=none;horizontalStack=0;resizeParent=1;resizeParentMax=0;resizeLast=0;collapsible=1;marginBottom=0;whiteSpace=wrap;html=1;" parent="1" vertex="1">
          <mxGeometry x="1340" y="1180" width="160" height="52" as="geometry" />
        </mxCell>
        <mxCell id="TffWgvNhqmHeZFF0g053-142" style="edgeStyle=orthogonalEdgeStyle;rounded=0;orthogonalLoop=1;jettySize=auto;html=1;endArrow=block;endFill=0;" parent="1" source="TffWgvNhqmHeZFF0g053-121" edge="1">
          <mxGeometry relative="1" as="geometry">
            <mxPoint x="1719.9999999999995" y="1130" as="targetPoint" />
          </mxGeometry>
        </mxCell>
        <mxCell id="TffWgvNhqmHeZFF0g053-121" value="WindowsHardenedStrategy" style="swimlane;fontStyle=0;childLayout=stackLayout;horizontal=1;startSize=26;fillColor=none;horizontalStack=0;resizeParent=1;resizeParentMax=0;resizeLast=0;collapsible=1;marginBottom=0;whiteSpace=wrap;html=1;" parent="1" vertex="1">
          <mxGeometry x="1538" y="1380" width="160" height="52" as="geometry" />
        </mxCell>
        <mxCell id="TffWgvNhqmHeZFF0g053-141" style="edgeStyle=orthogonalEdgeStyle;rounded=0;orthogonalLoop=1;jettySize=auto;html=1;endArrow=block;endFill=0;" parent="1" source="TffWgvNhqmHeZFF0g053-122" edge="1">
          <mxGeometry relative="1" as="geometry">
            <mxPoint x="1720" y="1130" as="targetPoint" />
          </mxGeometry>
        </mxCell>
        <mxCell id="TffWgvNhqmHeZFF0g053-122" value="LinuxHardenedStrategy" style="swimlane;fontStyle=0;childLayout=stackLayout;horizontal=1;startSize=26;fillColor=none;horizontalStack=0;resizeParent=1;resizeParentMax=0;resizeLast=0;collapsible=1;marginBottom=0;whiteSpace=wrap;html=1;" parent="1" vertex="1">
          <mxGeometry x="1538" y="1280" width="160" height="52" as="geometry" />
        </mxCell>
        <mxCell id="TffWgvNhqmHeZFF0g053-139" style="edgeStyle=orthogonalEdgeStyle;rounded=0;orthogonalLoop=1;jettySize=auto;html=1;endArrow=block;endFill=0;" parent="1" source="TffWgvNhqmHeZFF0g053-123" edge="1">
          <mxGeometry relative="1" as="geometry">
            <mxPoint x="1719.9999999999995" y="1130" as="targetPoint" />
          </mxGeometry>
        </mxCell>
        <mxCell id="TffWgvNhqmHeZFF0g053-123" value="AndroidHardenedStrategy" style="swimlane;fontStyle=0;childLayout=stackLayout;horizontal=1;startSize=26;fillColor=none;horizontalStack=0;resizeParent=1;resizeParentMax=0;resizeLast=0;collapsible=1;marginBottom=0;whiteSpace=wrap;html=1;" parent="1" vertex="1">
          <mxGeometry x="1538" y="1180" width="160" height="52" as="geometry" />
        </mxCell>
        <mxCell id="_IW5eeZVro9ZEbm1nzwe-2" style="edgeStyle=orthogonalEdgeStyle;rounded=0;orthogonalLoop=1;jettySize=auto;html=1;exitX=0.75;exitY=0;exitDx=0;exitDy=0;entryX=0;entryY=0.411;entryDx=0;entryDy=0;entryPerimeter=0;" parent="1" source="TffWgvNhqmHeZFF0g053-89" target="TffWgvNhqmHeZFF0g053-94" edge="1">
          <mxGeometry relative="1" as="geometry" />
        </mxCell>
        <mxCell id="_IW5eeZVro9ZEbm1nzwe-6" style="edgeStyle=orthogonalEdgeStyle;rounded=0;orthogonalLoop=1;jettySize=auto;html=1;exitX=0.75;exitY=0;exitDx=0;exitDy=0;entryX=-0.001;entryY=0.414;entryDx=0;entryDy=0;entryPerimeter=0;" parent="1" source="TffWgvNhqmHeZFF0g053-88" target="TffWgvNhqmHeZFF0g053-94" edge="1">
          <mxGeometry relative="1" as="geometry" />
        </mxCell>
        <mxCell id="_IW5eeZVro9ZEbm1nzwe-7" style="edgeStyle=orthogonalEdgeStyle;rounded=0;orthogonalLoop=1;jettySize=auto;html=1;exitX=0.75;exitY=0;exitDx=0;exitDy=0;entryX=-0.001;entryY=0.414;entryDx=0;entryDy=0;entryPerimeter=0;" parent="1" source="TffWgvNhqmHeZFF0g053-87" target="TffWgvNhqmHeZFF0g053-94" edge="1">
          <mxGeometry relative="1" as="geometry" />
        </mxCell>
        <mxCell id="_IW5eeZVro9ZEbm1nzwe-8" style="edgeStyle=orthogonalEdgeStyle;rounded=0;orthogonalLoop=1;jettySize=auto;html=1;exitX=0.75;exitY=0;exitDx=0;exitDy=0;entryX=0.001;entryY=0.415;entryDx=0;entryDy=0;entryPerimeter=0;" parent="1" source="TffWgvNhqmHeZFF0g053-86" target="TffWgvNhqmHeZFF0g053-94" edge="1">
          <mxGeometry relative="1" as="geometry" />
        </mxCell>
        <mxCell id="_IW5eeZVro9ZEbm1nzwe-13" style="edgeStyle=orthogonalEdgeStyle;rounded=0;orthogonalLoop=1;jettySize=auto;html=1;entryX=-0.003;entryY=0.426;entryDx=0;entryDy=0;entryPerimeter=0;" parent="1" target="TffWgvNhqmHeZFF0g053-103" edge="1">
          <mxGeometry relative="1" as="geometry">
            <mxPoint x="1870" y="1050" as="sourcePoint" />
            <mxPoint x="1930" y="1270" as="targetPoint" />
            <Array as="points">
              <mxPoint x="1870" y="1324" />
            </Array>
          </mxGeometry>
        </mxCell>
        <mxCell id="_IW5eeZVro9ZEbm1nzwe-14" value="BackendProcessManager" style="swimlane;fontStyle=1;align=center;verticalAlign=top;childLayout=stackLayout;horizontal=1;startSize=26;horizontalStack=0;resizeParent=1;resizeParentMax=0;resizeLast=0;collapsible=1;marginBottom=0;whiteSpace=wrap;html=1;" parent="1" vertex="1">
          <mxGeometry x="920" y="356" width="220" height="100" as="geometry" />
        </mxCell>
        <mxCell id="_IW5eeZVro9ZEbm1nzwe-18" value="+ OnStdOut: event Action&amp;lt;string&amp;gt;" style="text;strokeColor=none;fillColor=none;align=left;verticalAlign=top;spacingLeft=4;spacingRight=4;overflow=hidden;rotatable=0;points=[[0,0.5],[1,0.5]];portConstraint=eastwest;whiteSpace=wrap;html=1;" parent="_IW5eeZVro9ZEbm1nzwe-14" vertex="1">
          <mxGeometry y="26" width="220" height="24" as="geometry" />
        </mxCell>
        <mxCell id="_IW5eeZVro9ZEbm1nzwe-15" value="" style="line;strokeWidth=1;fillColor=none;align=left;verticalAlign=middle;spacingTop=-1;spacingLeft=3;spacingRight=3;rotatable=0;labelPosition=right;points=[];portConstraint=eastwest;strokeColor=inherit;" parent="_IW5eeZVro9ZEbm1nzwe-14" vertex="1">
          <mxGeometry y="50" width="220" height="8" as="geometry" />
        </mxCell>
        <mxCell id="_IW5eeZVro9ZEbm1nzwe-16" value="+ StartBackend(string path)&lt;div&gt;+ WriteStdin&lt;span style=&quot;background-color: transparent; color: light-dark(rgb(0, 0, 0), rgb(255, 255, 255));&quot;&gt;(string json)&lt;/span&gt;&lt;/div&gt;" style="text;strokeColor=none;fillColor=none;align=left;verticalAlign=top;spacingLeft=4;spacingRight=4;overflow=hidden;rotatable=0;points=[[0,0.5],[1,0.5]];portConstraint=eastwest;whiteSpace=wrap;html=1;" parent="_IW5eeZVro9ZEbm1nzwe-14" vertex="1">
          <mxGeometry y="58" width="220" height="42" as="geometry" />
        </mxCell>
        <mxCell id="_IW5eeZVro9ZEbm1nzwe-17" style="edgeStyle=orthogonalEdgeStyle;rounded=0;orthogonalLoop=1;jettySize=auto;html=1;endArrow=none;startFill=0;entryX=0;entryY=0.214;entryDx=0;entryDy=0;entryPerimeter=0;" parent="1" source="TffWgvNhqmHeZFF0g053-49" target="_IW5eeZVro9ZEbm1nzwe-16" edge="1">
          <mxGeometry relative="1" as="geometry" />
        </mxCell>
        <mxCell id="_IW5eeZVro9ZEbm1nzwe-19" value="MessageRouter" style="swimlane;fontStyle=1;align=center;verticalAlign=top;childLayout=stackLayout;horizontal=1;startSize=26;horizontalStack=0;resizeParent=1;resizeParentMax=0;resizeLast=0;collapsible=1;marginBottom=0;whiteSpace=wrap;html=1;" parent="1" vertex="1">
          <mxGeometry x="920" y="200" width="360" height="90" as="geometry" />
        </mxCell>
        <mxCell id="_IW5eeZVro9ZEbm1nzwe-20" value="+ OnStdOut: event Action&amp;lt;string&amp;gt;" style="text;strokeColor=none;fillColor=none;align=left;verticalAlign=top;spacingLeft=4;spacingRight=4;overflow=hidden;rotatable=0;points=[[0,0.5],[1,0.5]];portConstraint=eastwest;whiteSpace=wrap;html=1;" parent="_IW5eeZVro9ZEbm1nzwe-19" vertex="1">
          <mxGeometry y="26" width="360" height="24" as="geometry" />
        </mxCell>
        <mxCell id="_IW5eeZVro9ZEbm1nzwe-21" value="" style="line;strokeWidth=1;fillColor=none;align=left;verticalAlign=middle;spacingTop=-1;spacingLeft=3;spacingRight=3;rotatable=0;labelPosition=right;points=[];portConstraint=eastwest;strokeColor=inherit;" parent="_IW5eeZVro9ZEbm1nzwe-19" vertex="1">
          <mxGeometry y="50" width="360" height="8" as="geometry" />
        </mxCell>
        <mxCell id="_IW5eeZVro9ZEbm1nzwe-22" value="&lt;div&gt;+ RouteMessage(string json, Direction dir)&lt;/div&gt;" style="text;strokeColor=none;fillColor=none;align=left;verticalAlign=top;spacingLeft=4;spacingRight=4;overflow=hidden;rotatable=0;points=[[0,0.5],[1,0.5]];portConstraint=eastwest;whiteSpace=wrap;html=1;" parent="_IW5eeZVro9ZEbm1nzwe-19" vertex="1">
          <mxGeometry y="58" width="360" height="32" as="geometry" />
        </mxCell>
        <mxCell id="_IW5eeZVro9ZEbm1nzwe-27" style="edgeStyle=orthogonalEdgeStyle;rounded=0;orthogonalLoop=1;jettySize=auto;html=1;entryX=-0.001;entryY=0.116;entryDx=0;entryDy=0;entryPerimeter=0;endArrow=none;startFill=0;" parent="1" source="TffWgvNhqmHeZFF0g053-49" target="_IW5eeZVro9ZEbm1nzwe-22" edge="1">
          <mxGeometry relative="1" as="geometry" />
        </mxCell>
        <mxCell id="_IW5eeZVro9ZEbm1nzwe-29" value="&lt;div&gt;&lt;font style=&quot;font-size: 10px;&quot;&gt;&amp;lt;&amp;lt;Enum&amp;gt;&amp;gt;&lt;/font&gt;&lt;/div&gt;Direction" style="swimlane;fontStyle=0;childLayout=stackLayout;horizontal=1;startSize=40;fillColor=none;horizontalStack=0;resizeParent=1;resizeParentMax=0;resizeLast=0;collapsible=1;marginBottom=0;whiteSpace=wrap;html=1;" parent="1" vertex="1">
          <mxGeometry x="1350" y="219" width="140" height="92" as="geometry" />
        </mxCell>
        <mxCell id="_IW5eeZVro9ZEbm1nzwe-30" value="+ ToBackend" style="text;strokeColor=none;fillColor=none;align=left;verticalAlign=top;spacingLeft=4;spacingRight=4;overflow=hidden;rotatable=0;points=[[0,0.5],[1,0.5]];portConstraint=eastwest;whiteSpace=wrap;html=1;" parent="_IW5eeZVro9ZEbm1nzwe-29" vertex="1">
          <mxGeometry y="40" width="140" height="26" as="geometry" />
        </mxCell>
        <mxCell id="_IW5eeZVro9ZEbm1nzwe-31" value="+ ToFrontend" style="text;strokeColor=none;fillColor=none;align=left;verticalAlign=top;spacingLeft=4;spacingRight=4;overflow=hidden;rotatable=0;points=[[0,0.5],[1,0.5]];portConstraint=eastwest;whiteSpace=wrap;html=1;" parent="_IW5eeZVro9ZEbm1nzwe-29" vertex="1">
          <mxGeometry y="66" width="140" height="26" as="geometry" />
        </mxCell>
        <mxCell id="_IW5eeZVro9ZEbm1nzwe-34" style="edgeStyle=orthogonalEdgeStyle;rounded=0;orthogonalLoop=1;jettySize=auto;html=1;exitX=1.001;exitY=0.062;exitDx=0;exitDy=0;exitPerimeter=0;endArrow=open;endFill=0;dashed=1;entryX=0.004;entryY=0.05;entryDx=0;entryDy=0;entryPerimeter=0;" parent="1" source="_IW5eeZVro9ZEbm1nzwe-22" target="_IW5eeZVro9ZEbm1nzwe-30" edge="1">
          <mxGeometry relative="1" as="geometry">
            <mxPoint x="1350" y="263" as="targetPoint" />
          </mxGeometry>
        </mxCell>
        <mxCell id="_IW5eeZVro9ZEbm1nzwe-40" value="&lt;div&gt;&lt;font style=&quot;font-size: 10px;&quot;&gt;&amp;lt;&amp;lt;Interface&amp;gt;&amp;gt;&lt;/font&gt;&lt;/div&gt;IWebViewPlatform" style="swimlane;fontStyle=1;align=center;verticalAlign=top;childLayout=stackLayout;horizontal=1;startSize=46;horizontalStack=0;resizeParent=1;resizeParentMax=0;resizeLast=0;collapsible=1;marginBottom=0;whiteSpace=wrap;html=1;" parent="1" vertex="1">
          <mxGeometry x="920" y="471" width="330" height="174" as="geometry" />
        </mxCell>
        <mxCell id="_IW5eeZVro9ZEbm1nzwe-44" value="+ WebMessageReceived: event Aaction&amp;lt;string&amp;gt;&lt;div&gt;&lt;br&gt;&lt;/div&gt;" style="text;strokeColor=none;fillColor=none;align=left;verticalAlign=top;spacingLeft=4;spacingRight=4;overflow=hidden;rotatable=0;points=[[0,0.5],[1,0.5]];portConstraint=eastwest;whiteSpace=wrap;html=1;" parent="_IW5eeZVro9ZEbm1nzwe-40" vertex="1">
          <mxGeometry y="46" width="330" height="24" as="geometry" />
        </mxCell>
        <mxCell id="_IW5eeZVro9ZEbm1nzwe-41" value="" style="line;strokeWidth=1;fillColor=none;align=left;verticalAlign=middle;spacingTop=-1;spacingLeft=3;spacingRight=3;rotatable=0;labelPosition=right;points=[];portConstraint=eastwest;strokeColor=inherit;" parent="_IW5eeZVro9ZEbm1nzwe-40" vertex="1">
          <mxGeometry y="70" width="330" height="8" as="geometry" />
        </mxCell>
        <mxCell id="_IW5eeZVro9ZEbm1nzwe-42" value="+ Initialize(Config config)&lt;div&gt;+ CheckAvailability()&lt;/div&gt;&lt;div&gt;+ InstallPrerequisites()&lt;/div&gt;&lt;div&gt;+ Navigate(string url)&lt;/div&gt;&lt;div&gt;+ SendMessageToJS(stri&lt;span style=&quot;color: rgba(0, 0, 0, 0); font-family: monospace; font-size: 0px; text-wrap-mode: nowrap; background-color: transparent;&quot;&gt;%3CmxGraphModel%3E%3Croot%3E%3CmxCell%20id%3D%220%22%2F%3E%3CmxCell%20id%3D%221%22%20parent%3D%220%22%2F%3E%3CmxCell%20id%3D%222%22%20value%3D%22%26lt%3Bdiv%26gt%3B%26lt%3Bfont%20style%3D%26quot%3Bfont-size%3A%2010px%3B%26quot%3B%26gt%3B%26amp%3Blt%3B%26amp%3Blt%3BInterface%26amp%3Bgt%3B%26amp%3Bgt%3B%26lt%3B%2Ffont%26gt%3B%26lt%3B%2Fdiv%26gt%3BISecurityStrategy%22%20style%3D%22swimlane%3BfontStyle%3D1%3Balign%3Dcenter%3BverticalAlign%3Dtop%3BchildLayout%3DstackLayout%3Bhorizontal%3D1%3BstartSize%3D46%3BhorizontalStack%3D0%3BresizeParent%3D1%3BresizeParentMax%3D0%3BresizeLast%3D0%3Bcollapsible%3D1%3BmarginBottom%3D0%3BwhiteSpace%3Dwrap%3Bhtml%3D1%3B%22%20vertex%3D%221%22%20parent%3D%221%22%3E%3CmxGeometry%20x%3D%221228%22%20y%3D%22900%22%20width%3D%22330%22%20height%3D%22100%22%20as%3D%22geometry%22%2F%3E%3C%2FmxCell%3E%3CmxCell%20id%3D%223%22%20value%3D%22%22%20style%3D%22line%3BstrokeWidth%3D1%3BfillColor%3Dnone%3Balign%3Dleft%3BverticalAlign%3Dmiddle%3BspacingTop%3D-1%3BspacingLeft%3D3%3BspacingRight%3D3%3Brotatable%3D0%3BlabelPosition%3Dright%3Bpoints%3D%5B%5D%3BportConstraint%3Deastwest%3BstrokeColor%3Dinherit%3B%22%20vertex%3D%221%22%20parent%3D%222%22%3E%3CmxGeometry%20y%3D%2246%22%20width%3D%22330%22%20height%3D%228%22%20as%3D%22geometry%22%2F%3E%3C%2FmxCell%3E%3CmxCell%20id%3D%224%22%20value%3D%22%2B%20VerifyIntegrity()%26lt%3Bdiv%26gt%3B%2B%20ApplyPolicies()%26lt%3B%2Fdiv%26gt%3B%22%20style%3D%22text%3BstrokeColor%3Dnone%3BfillColor%3Dnone%3Balign%3Dleft%3BverticalAlign%3Dtop%3BspacingLeft%3D4%3BspacingRight%3D4%3Boverflow%3Dhidden%3Brotatable%3D0%3Bpoints%3D%5B%5B0%2C0.5%5D%2C%5B1%2C0.5%5D%5D%3BportConstraint%3Deastwest%3BwhiteSpace%3Dwrap%3Bhtml%3D1%3B%22%20vertex%3D%221%22%20parent%3D%222%22%3E%3CmxGeometry%20y%3D%2254%22%20width%3D%22330%22%20height%3D%2246%22%20as%3D%22geometry%22%2F%3E%3C%2FmxCell%3E%3C%2Froot%3E%3C%2FmxGraphModel%3E&lt;/span&gt;&lt;span style=&quot;background-color: transparent; color: light-dark(rgb(0, 0, 0), rgb(255, 255, 255));&quot;&gt;ng message)&lt;/span&gt;&lt;/div&gt;&lt;div&gt;+ Start()&lt;/div&gt;&lt;div&gt;&lt;br&gt;&lt;/div&gt;" style="text;strokeColor=none;fillColor=none;align=left;verticalAlign=top;spacingLeft=4;spacingRight=4;overflow=hidden;rotatable=0;points=[[0,0.5],[1,0.5]];portConstraint=eastwest;whiteSpace=wrap;html=1;" parent="_IW5eeZVro9ZEbm1nzwe-40" vertex="1">
          <mxGeometry y="78" width="330" height="96" as="geometry" />
        </mxCell>
        <mxCell id="_IW5eeZVro9ZEbm1nzwe-49" style="edgeStyle=orthogonalEdgeStyle;rounded=0;orthogonalLoop=1;jettySize=auto;html=1;endArrow=block;endFill=0;dashed=1;" parent="1" source="_IW5eeZVro9ZEbm1nzwe-46" target="_IW5eeZVro9ZEbm1nzwe-40" edge="1">
          <mxGeometry relative="1" as="geometry">
            <Array as="points">
              <mxPoint x="885" y="665" />
              <mxPoint x="1085" y="665" />
            </Array>
          </mxGeometry>
        </mxCell>
        <mxCell id="_IW5eeZVro9ZEbm1nzwe-46" value="&lt;div&gt;&lt;div&gt;&lt;font&gt;WebViewWindows&lt;/font&gt;&lt;/div&gt;&lt;/div&gt;" style="swimlane;fontStyle=0;childLayout=stackLayout;horizontal=1;startSize=30;fillColor=none;horizontalStack=0;resizeParent=1;resizeParentMax=0;resizeLast=0;collapsible=1;marginBottom=0;whiteSpace=wrap;html=1;" parent="1" vertex="1">
          <mxGeometry x="800" y="680" width="170" height="52" as="geometry" />
        </mxCell>
        <mxCell id="_IW5eeZVro9ZEbm1nzwe-50" style="edgeStyle=orthogonalEdgeStyle;rounded=0;orthogonalLoop=1;jettySize=auto;html=1;endArrow=block;endFill=0;dashed=1;" parent="1" source="_IW5eeZVro9ZEbm1nzwe-47" target="_IW5eeZVro9ZEbm1nzwe-40" edge="1">
          <mxGeometry relative="1" as="geometry" />
        </mxCell>
        <mxCell id="_IW5eeZVro9ZEbm1nzwe-47" value="&lt;div&gt;&lt;div&gt;&lt;font&gt;WebViewLinux&lt;/font&gt;&lt;/div&gt;&lt;/div&gt;" style="swimlane;fontStyle=0;childLayout=stackLayout;horizontal=1;startSize=30;fillColor=none;horizontalStack=0;resizeParent=1;resizeParentMax=0;resizeLast=0;collapsible=1;marginBottom=0;whiteSpace=wrap;html=1;" parent="1" vertex="1">
          <mxGeometry x="1000" y="680" width="170" height="52" as="geometry" />
        </mxCell>
        <mxCell id="_IW5eeZVro9ZEbm1nzwe-51" style="edgeStyle=orthogonalEdgeStyle;rounded=0;orthogonalLoop=1;jettySize=auto;html=1;endArrow=block;endFill=0;dashed=1;" parent="1" source="_IW5eeZVro9ZEbm1nzwe-48" target="_IW5eeZVro9ZEbm1nzwe-40" edge="1">
          <mxGeometry relative="1" as="geometry">
            <Array as="points">
              <mxPoint x="1285" y="665" />
              <mxPoint x="1085" y="665" />
            </Array>
          </mxGeometry>
        </mxCell>
        <mxCell id="_IW5eeZVro9ZEbm1nzwe-48" value="&lt;div&gt;&lt;div&gt;&lt;font&gt;WebViewAndroid&lt;/font&gt;&lt;/div&gt;&lt;/div&gt;" style="swimlane;fontStyle=0;childLayout=stackLayout;horizontal=1;startSize=30;fillColor=none;horizontalStack=0;resizeParent=1;resizeParentMax=0;resizeLast=0;collapsible=1;marginBottom=0;whiteSpace=wrap;html=1;" parent="1" vertex="1">
          <mxGeometry x="1200" y="680" width="170" height="52" as="geometry" />
        </mxCell>
        <mxCell id="_IW5eeZVro9ZEbm1nzwe-52" value="&lt;div&gt;&lt;font style=&quot;font-size: 10px;&quot;&gt;&amp;lt;&amp;lt;Static&amp;gt;&amp;gt;&lt;/font&gt;&lt;/div&gt;WebViewFactory" style="swimlane;fontStyle=1;align=center;verticalAlign=top;childLayout=stackLayout;horizontal=1;startSize=36;horizontalStack=0;resizeParent=1;resizeParentMax=0;resizeLast=0;collapsible=1;marginBottom=0;whiteSpace=wrap;html=1;" parent="1" vertex="1">
          <mxGeometry x="1320" y="523" width="220" height="70" as="geometry" />
        </mxCell>
        <mxCell id="_IW5eeZVro9ZEbm1nzwe-53" value="" style="line;strokeWidth=1;fillColor=none;align=left;verticalAlign=middle;spacingTop=-1;spacingLeft=3;spacingRight=3;rotatable=0;labelPosition=right;points=[];portConstraint=eastwest;strokeColor=inherit;" parent="_IW5eeZVro9ZEbm1nzwe-52" vertex="1">
          <mxGeometry y="36" width="220" height="8" as="geometry" />
        </mxCell>
        <mxCell id="_IW5eeZVro9ZEbm1nzwe-54" value="+ GetWebView(): IWebViewPlatform" style="text;strokeColor=none;fillColor=none;align=left;verticalAlign=top;spacingLeft=4;spacingRight=4;overflow=hidden;rotatable=0;points=[[0,0.5],[1,0.5]];portConstraint=eastwest;whiteSpace=wrap;html=1;" parent="_IW5eeZVro9ZEbm1nzwe-52" vertex="1">
          <mxGeometry y="44" width="220" height="26" as="geometry" />
        </mxCell>
        <mxCell id="_IW5eeZVro9ZEbm1nzwe-57" style="edgeStyle=orthogonalEdgeStyle;rounded=0;orthogonalLoop=1;jettySize=auto;html=1;entryX=1;entryY=0.095;entryDx=0;entryDy=0;entryPerimeter=0;endArrow=open;endFill=0;dashed=1;" parent="1" source="_IW5eeZVro9ZEbm1nzwe-52" target="_IW5eeZVro9ZEbm1nzwe-42" edge="1">
          <mxGeometry relative="1" as="geometry" />
        </mxCell>
        <mxCell id="6-cO3qd8tfP0tlxHSFjV-1" value="&lt;div&gt;&lt;font style=&quot;font-size: 10px;&quot;&gt;&amp;lt;&amp;lt;Static&amp;gt;&amp;gt;&lt;/font&gt;&lt;/div&gt;SignerFactory" style="swimlane;fontStyle=1;align=center;verticalAlign=top;childLayout=stackLayout;horizontal=1;startSize=36;horizontalStack=0;resizeParent=1;resizeParentMax=0;resizeLast=0;collapsible=1;marginBottom=0;whiteSpace=wrap;html=1;" vertex="1" parent="1">
          <mxGeometry x="2050" y="850" width="230" height="70" as="geometry" />
        </mxCell>
        <mxCell id="6-cO3qd8tfP0tlxHSFjV-2" value="" style="line;strokeWidth=1;fillColor=none;align=left;verticalAlign=middle;spacingTop=-1;spacingLeft=3;spacingRight=3;rotatable=0;labelPosition=right;points=[];portConstraint=eastwest;strokeColor=inherit;" vertex="1" parent="6-cO3qd8tfP0tlxHSFjV-1">
          <mxGeometry y="36" width="230" height="8" as="geometry" />
        </mxCell>
        <mxCell id="6-cO3qd8tfP0tlxHSFjV-3" value="+ GetSigner(): ISigner" style="text;strokeColor=none;fillColor=none;align=left;verticalAlign=top;spacingLeft=4;spacingRight=4;overflow=hidden;rotatable=0;points=[[0,0.5],[1,0.5]];portConstraint=eastwest;whiteSpace=wrap;html=1;" vertex="1" parent="6-cO3qd8tfP0tlxHSFjV-1">
          <mxGeometry y="44" width="230" height="26" as="geometry" />
        </mxCell>
        <mxCell id="6-cO3qd8tfP0tlxHSFjV-4" value="&lt;div&gt;&lt;font style=&quot;font-size: 10px;&quot;&gt;&amp;lt;&amp;lt;Static&amp;gt;&amp;gt;&lt;/font&gt;&lt;/div&gt;ResourceProtectorFactory" style="swimlane;fontStyle=1;align=center;verticalAlign=top;childLayout=stackLayout;horizontal=1;startSize=36;horizontalStack=0;resizeParent=1;resizeParentMax=0;resizeLast=0;collapsible=1;marginBottom=0;whiteSpace=wrap;html=1;" vertex="1" parent="1">
          <mxGeometry x="2330" y="850" width="260" height="70" as="geometry" />
        </mxCell>
        <mxCell id="6-cO3qd8tfP0tlxHSFjV-5" value="" style="line;strokeWidth=1;fillColor=none;align=left;verticalAlign=middle;spacingTop=-1;spacingLeft=3;spacingRight=3;rotatable=0;labelPosition=right;points=[];portConstraint=eastwest;strokeColor=inherit;" vertex="1" parent="6-cO3qd8tfP0tlxHSFjV-4">
          <mxGeometry y="36" width="260" height="8" as="geometry" />
        </mxCell>
        <mxCell id="6-cO3qd8tfP0tlxHSFjV-6" value="+ GetResourceProtector(): IResourceProtctor" style="text;strokeColor=none;fillColor=none;align=left;verticalAlign=top;spacingLeft=4;spacingRight=4;overflow=hidden;rotatable=0;points=[[0,0.5],[1,0.5]];portConstraint=eastwest;whiteSpace=wrap;html=1;" vertex="1" parent="6-cO3qd8tfP0tlxHSFjV-4">
          <mxGeometry y="44" width="260" height="26" as="geometry" />
        </mxCell>
      </root>
    </mxGraphModel>
  </diagram>
</mxfile>
